<svg xmlns="http://www.w3.org/2000/svg" width="256" height="256" viewBox="0 0 100 100"><rect width="100" height="100" rx="20" fill="#c2eabd"></rect><path d="M62.24 49.77L62.24 49.77Q62.24 44.91 60.89 41.36Q59.54 37.80 57.16 35.51Q54.77 33.21 51.48 32.09Q48.20 30.96 44.33 30.96L44.33 30.96Q42.26 30.96 40.59 31.10Q38.93 31.23 37.40 31.41L37.40 31.41L37.40 68.41Q38.93 68.77 40.86 68.90Q42.80 69.03 44.69 69.03L44.69 69.03Q53.06 69.03 57.65 64.17Q62.24 59.31 62.24 49.77ZM74.21 49.69L74.21 49.69Q74.21 56.97 72.09 62.42Q69.98 67.86 66.11 71.42Q62.24 74.97 56.79 76.77Q51.35 78.58 44.69 78.58L44.69 78.58Q43.16 78.58 41.36 78.53Q39.56 78.48 37.63 78.26Q35.69 78.03 33.75 77.67Q31.82 77.31 30.11 76.69L30.11 76.69Q25.79 75.06 25.79 71.28L25.79 71.28L25.79 27.19Q25.79 25.56 26.69 24.66Q27.59 23.77 29.21 23.23L29.21 23.23Q32.54 22.05 36.45 21.74Q40.37 21.42 43.88 21.42L43.88 21.42Q50.63 21.42 56.25 23.18Q61.88 24.94 65.84 28.45Q69.80 31.95 72.00 37.27Q74.21 42.57 74.21 49.69Z" fill="#fff"></path></svg>